<svg width="2324" height="608" xmlns="http://www.w3.org/2000/svg" fill="none" preserveAspectRatio="none">
 <defs>
  <linearGradient y2="0.99799" x2="0.0379" y1="0.07651" x1="0.0379" id="paint0_linear">
   <stop stop-color="#0C35B2"/>
   <stop stop-color="#07237A" offset="1"/>
  </linearGradient>
  <linearGradient y2="0.44838" x2="0.31183" y1="0.0729" x1="0.31183" id="paint1_linear">
   <stop stop-color="#0E4DC0"/>
   <stop stop-color="#0A3B93" offset="1"/>
  </linearGradient>
  <linearGradient y2="0.62232" x2="0.18841" y1="0" x1="0.18841" id="paint2_linear">
   <stop stop-color="#1273E5"/>
   <stop stop-color="#094790" offset="1"/>
  </linearGradient>
  <linearGradient y2="0.59744" x2="0.26784" y1="0.1338" x1="0.26776" id="paint3_linear">
   <stop stop-color="#319DEE"/>
   <stop stop-color="#2585CD" offset="1"/>
  </linearGradient>
  <linearGradient y2="1.16665" x2="0.17859" y1="0.38344" x1="0.17859" id="paint4_linear">
   <stop stop-color="#58BFF0"/>
   <stop stop-color="#138BC5" offset="1"/>
  </linearGradient>
  <linearGradient y2="1.28701" x2="0.19605" y1="0.67996" x1="0.19605" id="paint5_linear">
   <stop stop-color="#7ED9F2"/>
   <stop stop-color="#24C1EC" offset="1"/>
  </linearGradient>
  <linearGradient y2="1.00347" x2="0.15038" y1="0.41951" x1="0.15048" id="paint6_linear">
   <stop stop-color="#A4EDF5"/>
   <stop stop-color="#85DFE9" offset="1"/>
  </linearGradient>
  <linearGradient y2="0.94787" x2="0.11315" y1="0.17502" x1="0.11315" id="paint7_linear">
   <stop stop-color="#C9F9F9"/>
   <stop stop-color="#fff" offset="1"/>
  </linearGradient>
 </defs>
 <g>
  <title>Layer 1</title>
  <path transform="rotate(180 1162 325)" id="svg_1" fill="url(#paint0_linear)" d="m0,599.891l0,-509.891s72.5,23.5 105.439,39.566c32.938,16.066 97.931,18.16 167.308,18.16s119.583,5.796 178.596,5.796c59.014,0 95.115,-104.522 148.897,-104.522c53.783,0 57.334,19.119 151.298,19.119c93.965,0 67.604,-10.405 150.378,-10.405c82.774,0 67.124,61.292 151.604,61.292c84.49,0 80.59,58.625 130.18,58.625s41.3,-39.052 94.49,-39.052c53.2,0 67.17,-70.46 127.33,-70.46c60.17,0 61.07,85.403 141.02,85.403c79.94,0 117.52,-14.943 179.72,-14.943c62.19,0 69.81,-70.46 141.73,-70.46c71.92,0 90.64,50.887 159.18,50.887c68.53,0 61.4,-8.925 143.91,-8.925c36.54,0 40.74,-3.675 79.42,-15.081c39,-11.5 73.5,-5 73.5,-5l0,511l-2324,-1.109z" clip-rule="evenodd" fill-rule="evenodd"/>
  <path transform="rotate(180 1162 310.024)" id="svg_2" fill="url(#paint1_linear)" d="m0,567.11901l0,-449.57s9.37,0.361 20,9c17.798,14.463 45.44,40.34 84.72,40.34l167.308,0c69.377,0 119.583,-26.626 178.597,-26.626c59.013,0 95.114,-41.933 148.897,-41.933c53.782,0 57.333,-45.4 151.298,-45.4c93.964,0 67.603,37.528 150.377,37.528c82.774,0 67.124,67.445 151.603,67.445c84.49,0 80.59,49.888 130.18,49.888s41.3,-33.232 94.5,-33.232c53.19,0 67.16,-84.101 127.33,-84.101c60.16,0 61.06,42.687 141.01,42.687c79.94,0 117.52,41.414 179.72,41.414s69.82,-59.96 141.73,-59.96c71.92,0 90.64,40.332 159.18,40.332s61.4,-31.882 143.92,-31.882c59.1,0 51.13,2 92.13,19.5c25.5,10 43.59,-25 61.5,-25l0,449.57l-2324,0z" clip-rule="evenodd" fill-rule="evenodd"/>
  <path transform="rotate(180 1162 282.621)" id="svg_3" fill="url(#paint2_linear)" d="m0,512.31304l0,-412.57s11.5,0 27,7c16.158,7.297 37,23.5 77.72,19.521c62.742,0 97.931,61.081 167.308,61.081s119.583,-61.081 178.597,-61.081c59.013,0 95.114,21.893 148.897,21.893c53.782,0 57.333,-59.907 151.298,-59.907c93.964,0 67.603,-35.32 150.377,-35.32c82.774,0 67.124,164.526 151.603,164.526c84.49,0 80.59,32.041 130.18,32.041s41.3,-72.081 94.5,-72.081c53.19,0 67.16,-35.331 127.33,-35.331c60.16,0 61.06,-53.835 141.01,-53.835c79.94,0 117.52,89.166 179.72,89.166s69.82,-29.259 141.73,-29.259c71.92,0 90.64,-14.785 159.18,-14.785s61.4,-16.094 143.92,-16.094c70.24,0 68.06,40.565 110.63,1.465c7.44,-6.831 24,-19 43,-19l0,412.57l-2324,0z" clip-rule="evenodd" fill-rule="evenodd"/>
  <path transform="rotate(180 1162 256.712)" id="svg_4" fill="url(#paint3_linear)" d="m0,457.50501l0,-378.581s17,1 36,15c23.197,17.092 17.5,33.5 69,44.5s98.123,39 167.5,39s119.111,-12.682 178.125,-12.682c59.013,0 95.114,-25.577 148.897,-25.577c53.782,0 57.333,-76.832 151.298,-76.832c93.964,0 67.603,-6.414 150.377,-6.414c82.774,0 67.124,213.183 151.603,213.183c84.49,0 80.59,-41.348 130.18,-41.348s41.3,-24.512 94.5,-24.512c53.19,0 67.16,-12.109 127.33,-12.109c60.16,0 61.06,-135.214 141.01,-135.214c79.94,0 117.52,184.68 179.72,184.68s69.82,-49.466 141.73,-49.466c71.92,0 90.64,-26.391 159.18,-26.391s61.4,-52.572 143.92,-52.572c41.29,0 72.13,9.754 89.63,1.254s32.45,-34.5 64,-34.5l0,378.5l-2324,0.081z" clip-rule="evenodd" fill-rule="evenodd"/>
  <path transform="rotate(180 1162 249.238)" id="svg_5" fill="url(#paint4_linear)" d="m0,445.54699l0,-326.07s8.023,0.403 13,4c14.802,10.699 44.758,33.96 91.709,33.96c62.736,0 97.921,36.276 167.291,36.276c69.37,0 119.571,-13.128 178.578,-13.128c59.007,0 95.105,23.885 148.882,23.885s57.327,-151.54 151.282,-151.54c93.955,0 67.597,29.165 150.362,29.165s67.117,192.94 151.596,192.94c84.47,0 80.58,15.262 130.16,15.262s41.3,-22.788 94.48,-22.788c53.19,0 67.16,-63.039 127.32,-63.039s61.06,-97.128 141,-97.128s117.51,193.652 179.7,193.652c62.19,0 69.81,-63.38 141.72,-63.38s90.63,-33.144 159.16,-33.144s61.4,-71.465 143.9,-71.465c44.15,0 53.36,22.472 95.36,16.472s29.14,-30 58.5,-30l0,326l-2324,0.07z" clip-rule="evenodd" fill-rule="evenodd"/>
  <path transform="rotate(180 1162 232.145)" id="svg_6" fill="url(#paint5_linear)" d="m0,415.50002l0,-179.709s13.5,0 37,-12c16.33,-7.514 51.5,-37 100,-37c62.74,0 66.643,14.504 136.017,14.504s119.578,-11.166 178.589,-11.166c59.011,0 95.11,20.315 148.891,20.315c53.78,0 57.331,-161.653 151.292,-161.653s67.601,57.565 150.371,57.565c82.77,0 67.122,202.079 151.6,202.079c84.48,0 80.59,-24.988 130.17,-24.988c49.59,0 41.3,-34.477 94.49,-34.477l127.33,0c60.16,0 61.06,-103.14 141,-103.14c79.95,0 117.52,148.946 179.72,148.946c62.19,0 69.81,-70.943 141.73,-70.943c71.91,0 90.63,25.137 159.17,25.137c68.53,0 61.4,-121.14 143.91,-121.14c82.5,0 89.57,107.961 152.72,107.961l0,179.5l-2324,0.209z" clip-rule="evenodd" fill-rule="evenodd"/>
  <path transform="rotate(180 1162 179.194)" id="svg_7" fill="url(#paint6_linear)" d="m0,364.888l0,-186.5s15.196,-0.647 41,-22.5c19.153,-16.221 65,-53.5 101,-53.5c62.74,0 62.143,22.482 131.517,22.482s119.578,-24.333 178.589,-24.333c59.011,0 95.11,78.403 148.891,78.403c53.78,0 69.825,-185.44 151.292,-185.44c81.466,0 72.35,24.836 150.371,24.836c78.021,0 67.122,227.717 151.6,227.717c84.48,0 80.59,-50.417 130.17,-50.417c49.59,0 41.3,-29.699 94.49,-29.699s67.16,29.699 127.33,29.699c60.16,0 61.06,-107.208 141,-107.208c79.95,0 117.52,164.728 179.72,164.728c62.19,0 69.81,-87.219 141.73,-87.219l169.76,0c68.54,0 50.81,-117.733 133.32,-117.733c82.5,0 89.07,130.184 152.22,130.184l0,131l-2324,55.5z" clip-rule="evenodd" fill-rule="evenodd"/>
  <path transform="rotate(180 1162 157.989)" id="svg_8" fill="url(#paint7_linear)" d="m0,322.979l0,-157.5s24.947,0.157 52,-21.5c16.725,-13.389 63.031,-51.5 87,-51.5c62.74,0 63.643,36.923 133.017,36.923s119.578,-22.479 178.589,-22.479c59.011,0 95.11,101.571 148.891,101.571c53.78,0 57.331,-215.494 151.292,-215.494s67.601,59.934 150.371,59.934c82.77,0 67.122,171.905 151.6,171.905c84.48,0 80.59,26.77 130.17,26.77c49.59,0 41.3,-100.315 94.49,-100.315s67.16,27.263 127.33,27.263c60.16,0 61.06,-77.595 141,-77.595c79.95,0 117.52,140.669 179.72,140.669c62.19,0 69.81,-56.305 141.73,-56.305c71.91,0 103.77,-24.347 172.3,-24.347c68.53,0 50.49,-116.5 133,-116.5c82.51,0 88.35,121 151.5,121c-0.05,0 0,157.5 0,157.5l-2324,0z" clip-rule="evenodd" fill-rule="evenodd"/>
 </g>
</svg>